<mxfile host="Electron" modified="2023-12-05T18:57:12.384Z" agent="Mozilla/5.0 (Windows NT 10.0; Win64; x64) AppleWebKit/537.36 (KHTML, like Gecko) draw.io/22.1.2 Chrome/114.0.5735.289 Electron/25.9.4 Safari/537.36" etag="ybGZREEtp27qZg6JrKIn" version="22.1.2" type="device">
  <diagram name="Page-1" id="s1pvvLx9hBPK1W75Xgxf">
    <mxGraphModel dx="1036" dy="606" grid="1" gridSize="10" guides="1" tooltips="1" connect="1" arrows="1" fold="1" page="1" pageScale="1" pageWidth="850" pageHeight="1100" math="0" shadow="0">
      <root>
        <mxCell id="0" />
        <mxCell id="1" parent="0" />
        <mxCell id="G3o-LYg8IUwJwW7yz7wI-1" value="Sales" style="shape=cylinder3;whiteSpace=wrap;html=1;boundedLbl=1;backgroundOutline=1;size=15;fillColor=#dae8fc;strokeColor=#6c8ebf;fontStyle=1" parent="1" vertex="1">
          <mxGeometry x="80" y="140" width="60" height="60" as="geometry" />
        </mxCell>
        <mxCell id="G3o-LYg8IUwJwW7yz7wI-2" value="Analitical Solutions Architecture" style="rounded=0;whiteSpace=wrap;html=1;fontStyle=3;fontSize=14;fillColor=#fff2cc;strokeColor=#d6b656;" parent="1" vertex="1">
          <mxGeometry x="40" y="30" width="600" height="50" as="geometry" />
        </mxCell>
        <mxCell id="G3o-LYg8IUwJwW7yz7wI-4" value="CRM" style="shape=cylinder3;whiteSpace=wrap;html=1;boundedLbl=1;backgroundOutline=1;size=15;fillColor=#f8cecc;strokeColor=#b85450;fontStyle=1" parent="1" vertex="1">
          <mxGeometry x="80" y="380" width="60" height="60" as="geometry" />
        </mxCell>
        <mxCell id="G3o-LYg8IUwJwW7yz7wI-5" value="Storage" style="shape=cylinder3;whiteSpace=wrap;html=1;boundedLbl=1;backgroundOutline=1;size=15;fillColor=#d5e8d4;strokeColor=#82b366;fontStyle=1" parent="1" vertex="1">
          <mxGeometry x="80" y="300" width="60" height="60" as="geometry" />
        </mxCell>
        <mxCell id="G3o-LYg8IUwJwW7yz7wI-6" value="" style="sketch=0;html=1;dashed=0;whitespace=wrap;fillColor=#2875E2;strokeColor=#ffffff;points=[[0.005,0.63,0],[0.1,0.2,0],[0.9,0.2,0],[0.5,0,0],[0.995,0.63,0],[0.72,0.99,0],[0.5,1,0],[0.28,0.99,0]];verticalLabelPosition=bottom;align=center;verticalAlign=top;shape=mxgraph.kubernetes.icon;prIcon=api" parent="1" vertex="1">
          <mxGeometry x="75" y="220" width="70" height="60" as="geometry" />
        </mxCell>
        <mxCell id="G3o-LYg8IUwJwW7yz7wI-7" value="SOURCE Layer" style="rounded=1;whiteSpace=wrap;html=1;fontStyle=1;fillColor=#f5f5f5;fontColor=#333333;strokeColor=#666666;" parent="1" vertex="1">
          <mxGeometry x="40" y="90" width="120" height="30" as="geometry" />
        </mxCell>
        <mxCell id="G3o-LYg8IUwJwW7yz7wI-8" value="STORAGE Layer" style="rounded=1;whiteSpace=wrap;html=1;fontStyle=1;fillColor=#f5f5f5;fontColor=#333333;strokeColor=#666666;" parent="1" vertex="1">
          <mxGeometry x="290" y="90" width="120" height="30" as="geometry" />
        </mxCell>
        <mxCell id="G3o-LYg8IUwJwW7yz7wI-9" value="DATA WAREHOUSE" style="shape=cylinder3;whiteSpace=wrap;html=1;boundedLbl=1;backgroundOutline=1;size=15;fillColor=#76608a;fontColor=#ffffff;strokeColor=#432D57;gradientColor=default;" parent="1" vertex="1">
          <mxGeometry x="260" y="215" width="180" height="160" as="geometry" />
        </mxCell>
        <mxCell id="G3o-LYg8IUwJwW7yz7wI-10" value="" style="endArrow=none;html=1;rounded=0;" parent="1" edge="1">
          <mxGeometry width="50" height="50" relative="1" as="geometry">
            <mxPoint x="140" y="260" as="sourcePoint" />
            <mxPoint x="200" y="260" as="targetPoint" />
          </mxGeometry>
        </mxCell>
        <mxCell id="G3o-LYg8IUwJwW7yz7wI-11" value="" style="endArrow=none;html=1;rounded=0;" parent="1" edge="1">
          <mxGeometry width="50" height="50" relative="1" as="geometry">
            <mxPoint x="199" y="420" as="sourcePoint" />
            <mxPoint x="199" y="170" as="targetPoint" />
          </mxGeometry>
        </mxCell>
        <mxCell id="G3o-LYg8IUwJwW7yz7wI-14" value="" style="endArrow=none;html=1;rounded=0;exitX=1;exitY=0.5;exitDx=0;exitDy=0;exitPerimeter=0;" parent="1" source="G3o-LYg8IUwJwW7yz7wI-1" edge="1">
          <mxGeometry width="50" height="50" relative="1" as="geometry">
            <mxPoint x="170" y="170" as="sourcePoint" />
            <mxPoint x="200" y="169.5" as="targetPoint" />
          </mxGeometry>
        </mxCell>
        <mxCell id="G3o-LYg8IUwJwW7yz7wI-16" value="" style="endArrow=none;html=1;rounded=0;" parent="1" edge="1">
          <mxGeometry width="50" height="50" relative="1" as="geometry">
            <mxPoint x="140" y="340" as="sourcePoint" />
            <mxPoint x="200" y="340" as="targetPoint" />
          </mxGeometry>
        </mxCell>
        <mxCell id="G3o-LYg8IUwJwW7yz7wI-17" value="" style="endArrow=none;html=1;rounded=0;" parent="1" edge="1">
          <mxGeometry width="50" height="50" relative="1" as="geometry">
            <mxPoint x="140" y="420" as="sourcePoint" />
            <mxPoint x="200" y="420" as="targetPoint" />
          </mxGeometry>
        </mxCell>
        <mxCell id="G3o-LYg8IUwJwW7yz7wI-18" value="" style="endArrow=classic;html=1;rounded=0;" parent="1" edge="1">
          <mxGeometry width="50" height="50" relative="1" as="geometry">
            <mxPoint x="200" y="300" as="sourcePoint" />
            <mxPoint x="260" y="300" as="targetPoint" />
          </mxGeometry>
        </mxCell>
        <mxCell id="G3o-LYg8IUwJwW7yz7wI-19" value="" style="image;aspect=fixed;html=1;points=[];align=center;fontSize=12;image=img/lib/azure2/databases/Azure_SQL.svg;" parent="1" vertex="1">
          <mxGeometry x="540" y="180" width="64" height="46" as="geometry" />
        </mxCell>
        <mxCell id="G3o-LYg8IUwJwW7yz7wI-20" value="" style="sketch=0;pointerEvents=1;shadow=0;dashed=0;html=1;strokeColor=none;fillColor=#505050;labelPosition=center;verticalLabelPosition=bottom;verticalAlign=top;outlineConnect=0;align=center;shape=mxgraph.office.services.excel_services;" parent="1" vertex="1">
          <mxGeometry x="550" y="280" width="60" height="49" as="geometry" />
        </mxCell>
        <mxCell id="G3o-LYg8IUwJwW7yz7wI-21" value="" style="image;html=1;image=img/lib/clip_art/finance/Pie_Chart_128x128.png;" parent="1" vertex="1">
          <mxGeometry x="540" y="375" width="64" height="70" as="geometry" />
        </mxCell>
        <mxCell id="G3o-LYg8IUwJwW7yz7wI-22" value="" style="endArrow=none;html=1;rounded=0;" parent="1" edge="1">
          <mxGeometry width="50" height="50" relative="1" as="geometry">
            <mxPoint x="500" y="420" as="sourcePoint" />
            <mxPoint x="500" y="210" as="targetPoint" />
          </mxGeometry>
        </mxCell>
        <mxCell id="G3o-LYg8IUwJwW7yz7wI-23" value="" style="endArrow=classic;html=1;rounded=0;" parent="1" edge="1">
          <mxGeometry width="50" height="50" relative="1" as="geometry">
            <mxPoint x="500" y="299.5" as="sourcePoint" />
            <mxPoint x="440" y="299.5" as="targetPoint" />
          </mxGeometry>
        </mxCell>
        <mxCell id="G3o-LYg8IUwJwW7yz7wI-24" value="" style="endArrow=none;html=1;rounded=0;" parent="1" edge="1">
          <mxGeometry width="50" height="50" relative="1" as="geometry">
            <mxPoint x="500" y="420" as="sourcePoint" />
            <mxPoint x="540" y="420" as="targetPoint" />
          </mxGeometry>
        </mxCell>
        <mxCell id="G3o-LYg8IUwJwW7yz7wI-25" value="" style="endArrow=none;html=1;rounded=0;" parent="1" edge="1">
          <mxGeometry width="50" height="50" relative="1" as="geometry">
            <mxPoint x="500" y="210" as="sourcePoint" />
            <mxPoint x="540" y="210" as="targetPoint" />
          </mxGeometry>
        </mxCell>
        <mxCell id="G3o-LYg8IUwJwW7yz7wI-26" value="" style="endArrow=none;html=1;rounded=0;" parent="1" edge="1">
          <mxGeometry width="50" height="50" relative="1" as="geometry">
            <mxPoint x="495" y="299.5" as="sourcePoint" />
            <mxPoint x="550" y="299.5" as="targetPoint" />
          </mxGeometry>
        </mxCell>
        <mxCell id="G3o-LYg8IUwJwW7yz7wI-28" value="BUSINESS Layer" style="rounded=1;whiteSpace=wrap;html=1;fontStyle=1;fillColor=#f5f5f5;fontColor=#333333;strokeColor=#666666;" parent="1" vertex="1">
          <mxGeometry x="520" y="90" width="120" height="30" as="geometry" />
        </mxCell>
        <object label="Customer" id="G3o-LYg8IUwJwW7yz7wI-29">
          <mxCell style="shape=umlActor;verticalLabelPosition=bottom;verticalAlign=top;html=1;outlineConnect=0;fontStyle=1" parent="1" vertex="1">
            <mxGeometry x="720" y="290" width="30" height="60" as="geometry" />
          </mxCell>
        </object>
        <mxCell id="G3o-LYg8IUwJwW7yz7wI-34" value="BI" style="text;html=1;align=center;verticalAlign=middle;resizable=0;points=[];autosize=1;strokeColor=none;fillColor=none;fontStyle=1" parent="1" vertex="1">
          <mxGeometry x="552" y="438" width="40" height="30" as="geometry" />
        </mxCell>
        <mxCell id="G3o-LYg8IUwJwW7yz7wI-35" value="Excel" style="text;html=1;align=center;verticalAlign=middle;resizable=0;points=[];autosize=1;strokeColor=none;fillColor=none;fontStyle=1" parent="1" vertex="1">
          <mxGeometry x="550" y="329" width="50" height="30" as="geometry" />
        </mxCell>
        <mxCell id="G3o-LYg8IUwJwW7yz7wI-36" value="" style="endArrow=none;dashed=1;html=1;rounded=0;" parent="1" edge="1">
          <mxGeometry width="50" height="50" relative="1" as="geometry">
            <mxPoint x="220" y="480" as="sourcePoint" />
            <mxPoint x="220" y="80" as="targetPoint" />
          </mxGeometry>
        </mxCell>
        <mxCell id="G3o-LYg8IUwJwW7yz7wI-37" value="" style="endArrow=none;dashed=1;html=1;rounded=0;fontSize=12;" parent="1" edge="1">
          <mxGeometry width="50" height="50" relative="1" as="geometry">
            <mxPoint x="480" y="480" as="sourcePoint" />
            <mxPoint x="480" y="80" as="targetPoint" />
          </mxGeometry>
        </mxCell>
      </root>
    </mxGraphModel>
  </diagram>
</mxfile>
